<?xml version="1.0" encoding="UTF-8" standalone="no"?>
<!-- Created with Inkscape (http://www.inkscape.org/) -->

<svg
   width="20mm"
   height="20mm"
   viewBox="0 0 20 20"
   version="1.1"
   id="svg203"
   xml:space="preserve"
   inkscape:version="1.2.1 (9c6d41e410, 2022-07-14)"
   sodipodi:docname="favicon.svg"
   xmlns:inkscape="http://www.inkscape.org/namespaces/inkscape"
   xmlns:sodipodi="http://sodipodi.sourceforge.net/DTD/sodipodi-0.dtd"
   xmlns="http://www.w3.org/2000/svg"
   xmlns:svg="http://www.w3.org/2000/svg"><sodipodi:namedview
     id="namedview205"
     pagecolor="#ffffff"
     bordercolor="#000000"
     borderopacity="0.25"
     inkscape:showpageshadow="2"
     inkscape:pageopacity="0.0"
     inkscape:pagecheckerboard="0"
     inkscape:deskcolor="#d1d1d1"
     inkscape:document-units="mm"
     showgrid="false"
     inkscape:zoom="2.9540685"
     inkscape:cx="46.376718"
     inkscape:cy="118.64992"
     inkscape:window-width="1920"
     inkscape:window-height="996"
     inkscape:window-x="0"
     inkscape:window-y="0"
     inkscape:window-maximized="1"
     inkscape:current-layer="layer1" /><defs
     id="defs200" /><g
     inkscape:label="Слой 1"
     inkscape:groupmode="layer"
     id="layer1"><g
       style="fill:none"
       id="g279"
       transform="matrix(0.29893234,0,0,0.29893234,3.2027721,0.00519759)"><path
         d="m 41.547,3.552 c -2.723,10.802 -6.308,34.846 0,56.799"
         stroke="#000000"
         stroke-width="7"
         stroke-linecap="round"
         id="path255" /><path
         d="m 18.603,45.019 c 6.811,-4.53 10.396,-5.924 17.566,-6.97"
         stroke="#000000"
         stroke-width="6"
         stroke-linecap="round"
         id="path257" /><path
         d="m 3.547,6.34 c 5.377,16.377 7.17,32.755 3.584,57.147"
         stroke="#000000"
         stroke-width="7"
         stroke-linecap="round"
         id="path259" /><path
         d="m 14,31.41 c -0.142,6.438 6,8.247 9,8.68 C 16,40.525 9,38.355 9,31.41 9,22.293 22,23.161 22,10.139 25.5,26.634 14.142,24.97 14,31.409 Z"
         fill="#ff8a00"
         id="path261" /><path
         d="m 36.5,30.54 c -0.66,7.826 -12.5,12.156 -19,6.946 10,4.341 17.747,-7.509 10,-19.1 C 21.307,9.121 22.058,-0.446 23.017,5.482 24.84,16.77 37.634,17.084 36.5,30.541 Z"
         fill="#ff0000"
         id="path263" /><path
         d="M 21.774,37.747 C 28.614,37.422 32,28.37 27,24.464 c 1.5,7.813 -2.726,9.116 -4.452,9.116 -3.048,0 -3.596,-2.17 -2.048,-3.907 1.548,-1.737 5.5,-3.473 4,-12.155 -1.5,10.047 -9.567,9.013 -9.32,15.262 0.128,3.216 3.215,5.127 6.594,4.967 z"
         fill="#f7cc34"
         id="path265" /></g></g></svg>
